# xmcd
# 
# Track frame offsets:
#     182
#     54657
#     76940
#     156182
#     255187
#     295590
# 
# Disc length: 4632
# 
# Revision: 4
# Processed by: cddbd v1.5.2PL0 Copyright (c) Steve Scherf et al.
# Submitted via: fre:ac v1.0.27
# 
DISCID=41121606
DTITLE=Frumpy - Live
DYEAR=1973
DGENRE=Progressive Rock, Blues Rock, Kraut Rock
TTITLE0=Keep On Going
TTITLE1=Backwater Blues
TTITLE2=Duty
TTITLE3=Release
TTITLE4=Take Care Of Illusion
TTITLE5=To My Mother
EXTD=CD 1989\nMercury 838 720-2 [0 42283 87202 8]\nLive - mono
EXTT0=Bünde - April 9, 1972
EXTT1=Hamburg - September 28, 1971
EXTT2=Hamburg - September 28, 1971
EXTT3=Bielefeld - December 11, 1971
EXTT4=Bielefeld - December 11, 1971
EXTT5=Bünde - April 9, 1972
PLAYORDER=
